<?xml version="1.0" encoding="utf-8"?>
<!-- Generator: Adobe Illustrator 23.0.3, SVG Export Plug-In . SVG Version: 6.00 Build 0)  -->
<svg version="1.1" id="Layer_1" xmlns="http://www.w3.org/2000/svg" xmlns:xlink="http://www.w3.org/1999/xlink" x="0px" y="0px"
	 viewBox="0 0 24 24" style="enable-background:new 0 0 24 24;" xml:space="preserve">
<style type="text/css">
	.st0{stroke:#000;stroke-width:0;stroke-miterlimit:10;}
</style>
<path class="st0" d="M6.4,14.2c1.3,0.3,0.6,1.9,0.1,3.2c-0.3,0.7,0.5,1.2,1,0.8c1.6-1.3,3.9-3.9,3.9-8.2c0-2.4-1.9-4.3-4.3-4.3
	S2.8,7.6,2.8,10C2.8,12.1,4.4,13.9,6.4,14.2z"/>
<path class="st0" d="M16.4,14.2c1.3,0.3,0.6,1.9,0.1,3.2c-0.3,0.7,0.5,1.2,1,0.8c1.6-1.3,3.9-3.9,3.9-8.2c0-2.4-1.9-4.3-4.3-4.3
	s-4.3,1.9-4.3,4.3C12.8,12.1,14.4,13.9,16.4,14.2z"/>
</svg>
